<?xml version="1.0" standalone="no"?>
<!DOCTYPE svg PUBLIC "-//W3C//DTD SVG 20010904//EN"
 "http://www.w3.org/TR/2001/REC-SVG-20010904/DTD/svg10.dtd">
<svg version="1.0" xmlns="http://www.w3.org/2000/svg"
 width="32.000000pt" height="32.000000pt" viewBox="0 0 32.000000 32.000000"
 preserveAspectRatio="xMidYMid meet">

<g transform="translate(0.000000,32.000000) scale(0.100000,-0.100000)"
fill="#000000" stroke="none">
<path d="M24 311 c4 -5 1 -11 -6 -13 -30 -10 -16 -278 14 -278 5 0 6 -4 3 -10
-4 -6 34 -10 105 -10 123 0 166 14 177 58 7 31 -1 234 -11 250 -5 8 -49 12
-147 12 -82 0 -138 -4 -135 -9z m82 -28 c-10 -10 -19 5 -10 18 6 11 8 11 12 0
2 -7 1 -15 -2 -18z m124 11 c0 -6 -12 -15 -27 -20 -27 -7 -36 -8 -68 -5 -24 2
-17 29 8 33 44 8 87 4 87 -8z m-15 -43 c3 -5 1 -12 -5 -16 -5 -3 -10 1 -10 9
0 18 6 21 15 7z m25 -25 c0 -3 -4 -8 -10 -11 -5 -3 -10 -1 -10 4 0 6 5 11 10
11 6 0 10 -2 10 -4z m-50 -26 c0 -5 11 -10 24 -10 32 0 39 -13 32 -55 -8 -43
-56 -80 -91 -71 -29 7 -74 63 -77 97 -3 21 1 24 35 27 20 2 37 7 37 13 0 5 9
9 20 9 11 0 20 -4 20 -10z m87 -92 c-3 -8 -6 -5 -6 6 -1 11 2 17 5 13 3 -3 4
-12 1 -19z m-77 -63 c-7 -9 -15 -13 -17 -11 -7 7 7 26 19 26 6 0 6 -6 -2 -15z"/>
</g>
</svg>
