<svg width="33" height="33" viewBox="0 0 33 33" fill="none" xmlns="http://www.w3.org/2000/svg">
<path d="M16.8896 32.9985C25.7262 32.9985 32.8896 25.8351 32.8896 16.9985C32.8896 8.16198 25.7262 0.998535 16.8896 0.998535C8.05309 0.998535 0.889648 8.16198 0.889648 16.9985C0.889648 25.8351 8.05309 32.9985 16.8896 32.9985Z" fill="url(#paint0_linear_2894_86)"/>
<path d="M26.1182 15.5225C26.1038 15.4372 26.0073 15.3922 25.9317 15.4356L23.7978 16.6674C23.7319 16.706 23.6917 16.7783 23.6949 16.8539C23.6965 16.907 23.6981 16.96 23.6981 17.0147C23.6981 20.8065 20.6252 23.8794 16.8334 23.8794C14.587 23.8794 12.593 22.7988 11.342 21.1297C11.2905 21.0621 11.313 20.9641 11.3854 20.9223L14.2011 19.2965C14.8668 19.8642 15.7303 20.2083 16.6742 20.2083C18.7824 20.2083 20.4901 18.5005 20.4901 16.3924C20.4901 16.156 20.4676 15.9261 20.4258 15.7026L25.1872 12.9544C25.2451 12.9206 25.266 12.8483 25.237 12.7904C23.6515 9.64346 20.3502 7.50798 16.5601 7.61571C11.6748 7.75561 7.66598 11.6889 7.44085 16.5709C7.19321 21.9675 11.4931 26.4201 16.835 26.4201C22.029 26.4201 26.2388 22.2103 26.2388 17.0163C26.2388 16.5066 26.1954 16.0081 26.1182 15.5225ZM10.1375 18.5038C10.0298 18.0246 9.9703 17.5261 9.9703 17.0131C9.9703 13.2213 13.0433 10.1484 16.835 10.1484C18.6521 10.1484 20.3036 10.8559 21.5321 12.0089C21.5771 12.0523 21.5675 12.1263 21.5144 12.1584L19.1747 13.5092C18.5058 12.9271 17.6326 12.5749 16.6758 12.5749C14.5677 12.5749 12.8599 14.2826 12.8599 16.3908C12.8599 16.6384 12.8857 16.8796 12.9307 17.1144L10.3627 18.597C10.2726 18.6501 10.16 18.6018 10.1375 18.5038ZM10.4527 19.7243L14.8909 17.1627V15.3633L16.6726 14.3341L18.2308 15.233L22.3136 12.8756L22.5548 13.2921L18.4543 15.6591V17.4199L16.6726 18.4491L15.1466 17.5679L10.6923 20.1391L10.4527 19.7243Z" fill="white"/>
<defs>
<linearGradient id="paint0_linear_2894_86" x1="16.8896" y1="0.998535" x2="16.8896" y2="32.9985" gradientUnits="userSpaceOnUse">
<stop stop-color="#1EE6F6"/>
<stop offset="1" stop-color="#3F2EF6"/>
</linearGradient>
</defs>
</svg>
